<svg version="1.1" id="Layer_1" xmlns="http://www.w3.org/2000/svg" xmlns:xlink="http://www.w3.org/1999/xlink" x="0px" y="0px"
	 width="100%" viewBox="0 0 200 200" enable-background="new 0 0 200 200" xml:space="preserve">
<path fill="#FEFEFE" opacity="1.000000" stroke="none" 
	d="
M91.000000,201.000000 
	C60.685322,201.000000 30.870644,201.000000 1.027983,201.000000 
	C1.027983,134.393692 1.027983,67.787354 1.027983,1.090514 
	C67.564529,1.090514 134.129211,1.090514 200.846954,1.090514 
	C200.846954,67.666397 200.846954,134.333160 200.846954,201.000000 
	C164.454315,201.000000 127.977158,201.000000 91.000000,201.000000 
M131.092133,116.306656 
	C130.803528,116.110275 130.514908,115.913895 130.142044,115.878494 
	C130.142044,115.878494 130.282486,115.763214 130.140244,115.316002 
	C129.741562,115.088089 129.342896,114.860168 128.490860,114.092522 
	C128.304565,113.949333 128.118286,113.806145 127.399338,113.172829 
	C122.695137,110.190521 118.352776,113.013809 113.399551,113.788200 
	C109.257431,114.875427 107.295525,117.372955 108.030800,121.787987 
	C108.246742,123.084579 108.007927,124.450424 108.074242,125.779701 
	C108.237457,129.051132 106.714844,129.372086 104.492500,128.369186 
	C103.955399,125.780434 103.347420,123.566536 103.057076,121.311745 
	C102.287582,115.335930 99.714706,112.685181 94.500969,112.734657 
	C89.376862,112.783279 85.611382,116.464043 85.140190,121.884819 
	C84.507378,129.164856 88.028023,132.978363 98.585777,134.954895 
	C95.020576,137.732071 92.319763,139.835922 89.806709,141.793503 
	C96.914635,143.814743 101.300735,140.387802 104.953186,134.086716 
	C112.048668,133.820908 119.144157,133.555084 126.116409,133.351608 
	C126.116409,133.351608 126.218781,133.444321 126.926262,133.325699 
	C127.516151,132.953949 128.106049,132.582199 129.286209,132.087173 
	C130.187195,131.047424 131.088165,130.007660 132.494583,128.546158 
	C132.729050,127.718414 132.963531,126.890663 133.583725,125.663887 
	C133.608521,125.120766 133.633316,124.577637 133.842667,123.505737 
	C133.792084,123.326035 133.741516,123.146332 133.797760,122.291168 
	C133.212341,120.855675 132.626923,119.420181 131.986893,117.441803 
	C131.718903,117.216232 131.450912,116.990662 131.122101,116.881645 
	C131.122101,116.881645 131.240845,116.825188 131.092133,116.306656 
M39.027145,127.012001 
	C38.991768,127.342239 38.956390,127.672478 38.595715,128.352722 
	C38.595715,128.352722 38.546059,128.827957 38.170963,129.460236 
	C38.668598,131.738098 39.166237,134.015961 39.702778,136.109009 
	C39.702778,136.109009 39.594845,136.263992 39.732006,136.850571 
	C40.113667,137.287033 40.495327,137.723495 40.921745,138.073700 
	C40.921745,138.073700 40.825443,138.086700 40.982647,138.630951 
	C41.299496,138.818985 41.616348,139.007019 42.098083,139.643204 
	C42.314423,139.914932 42.595928,140.040070 43.359459,140.615631 
	C48.029896,143.041504 52.699551,143.551666 57.500587,140.539795 
	C57.500587,140.539795 57.637405,140.477905 58.169895,140.247025 
	C58.951050,139.423325 59.732208,138.599609 60.661282,137.587845 
	C60.661282,137.587845 60.725563,137.357361 61.057423,137.033295 
	C61.239525,136.763748 61.311195,136.467453 61.160912,136.127060 
	C61.160912,136.127060 61.206623,136.230270 61.685898,135.917465 
	C62.056759,135.267899 62.427624,134.618332 63.741909,134.089539 
	C66.567940,134.091156 69.397469,134.183395 72.219238,134.074661 
	C77.362671,133.876495 81.006630,130.883469 82.256470,125.992027 
	C83.453705,121.306404 81.422775,116.499435 77.216225,114.062431 
	C73.145050,111.703835 68.056183,112.296921 64.488068,115.514420 
	C64.277985,115.703857 63.881680,115.686775 63.356316,115.820854 
	C62.803577,114.855370 62.228798,113.851379 61.821304,113.139603 
	C57.241985,114.155914 56.692883,117.137009 56.936455,120.818459 
	C57.188377,124.626114 57.038750,128.460342 56.690861,132.728592 
	C56.351170,133.427322 56.011478,134.126053 55.840023,134.857544 
	C55.840023,134.857544 55.806423,134.689468 55.137054,134.972748 
	C52.120819,135.251999 49.104584,135.531250 46.074669,135.916626 
	C46.074669,135.916626 46.179596,135.895615 45.965950,135.398087 
	C45.657768,135.223145 45.349590,135.048218 44.855991,134.346924 
	C44.706894,134.235672 44.557800,134.124435 44.204880,133.315170 
	C43.781898,131.219025 43.358921,129.122894 43.024563,126.591614 
	C43.024563,126.591614 43.060490,126.148994 43.677509,125.916328 
	C44.467628,124.681458 45.257744,123.446594 46.047859,122.211723 
	C45.757351,121.933266 45.466843,121.654808 45.176334,121.376343 
	C43.791420,122.254036 42.406509,123.131737 40.808971,124.243614 
	C40.808971,124.243614 40.841251,124.558273 40.313007,124.883522 
	C40.017715,125.421860 39.722424,125.960205 39.462303,126.591965 
	C39.462303,126.591965 39.377525,126.644684 39.027145,127.012001 
M163.195923,129.775879 
	C163.195923,129.775879 163.281616,129.521103 163.281616,129.521103 
	C163.281616,129.521103 163.101608,129.321869 163.445480,128.579559 
	C163.333267,128.057480 163.221054,127.535393 163.195114,126.415092 
	C162.135757,125.261742 161.076385,124.108391 159.633698,122.519173 
	C159.080338,122.427650 158.526978,122.336136 157.242294,122.055328 
	C156.491440,122.098259 155.740570,122.141182 154.259033,121.682014 
	C154.259033,115.526810 154.259033,109.371597 154.259033,102.745987 
	C146.524872,105.192848 149.585159,110.711838 148.973999,115.644852 
	C149.020660,116.106071 149.067337,116.567284 148.967667,117.807434 
	C149.017593,118.860199 149.067505,119.912964 148.789337,121.550888 
	C146.402039,119.667747 144.014740,117.784607 140.835144,115.276497 
	C139.940857,116.427963 136.941864,118.677124 137.293228,120.097466 
	C139.658051,129.656845 137.841599,137.088593 128.331253,142.195160 
	C132.309692,142.107864 137.002106,142.303925 139.051559,140.072525 
	C142.031906,136.827621 143.107224,131.833008 145.046768,127.467735 
	C145.550644,127.673897 147.218704,128.356400 148.916428,129.936005 
	C149.024017,131.297226 149.131607,132.658447 149.312546,134.947479 
	C153.725677,134.042969 157.554459,133.258209 161.404251,132.391220 
	C161.404251,132.391220 161.487595,132.407288 162.002274,132.094849 
	C162.321609,131.390900 162.640930,130.686951 163.010483,129.965683 
	C163.010483,129.965683 162.971802,129.929245 163.195923,129.775879 
M89.813103,96.094269 
	C89.907967,95.752998 90.002838,95.411720 90.761810,95.250641 
	C93.962257,99.614235 98.377457,99.370262 102.866112,98.237877 
	C108.204559,96.891106 108.987480,92.393776 109.230347,88.212761 
	C113.311882,87.714371 117.002403,87.263733 120.684578,86.814110 
	C121.624985,96.998466 126.955322,100.776253 137.028442,97.082466 
	C137.028442,86.259186 137.028442,75.435913 137.028442,63.398106 
	C134.737564,65.484390 133.361771,66.737320 131.703857,68.748573 
	C131.703857,76.773994 131.703857,84.799416 131.703857,92.999695 
	C126.098351,92.551025 126.997391,89.066933 127.002991,86.259697 
	C127.011520,81.975822 127.896156,77.353188 121.899338,76.138466 
	C117.957367,83.123878 111.187431,84.551819 107.992241,79.157997 
	C103.329819,80.292168 102.983940,83.748154 103.269501,87.688004 
	C103.482208,90.622574 102.746178,93.017822 99.044342,93.045349 
	C95.561440,93.071251 93.788979,91.339500 93.639374,87.948669 
	C93.540909,85.716858 93.620758,83.477173 93.620758,80.703064 
	C89.765007,82.473930 87.656380,83.975578 87.698273,87.998947 
	C87.715530,89.656166 85.104469,92.538406 83.389450,92.785545 
	C78.734795,93.456284 73.919991,93.015671 68.915672,93.015671 
	C68.915672,85.076927 68.756668,77.776184 68.977318,70.486938 
	C69.102859,66.339554 67.158783,64.628769 62.903690,63.914284 
	C62.903690,70.451775 62.903690,76.589409 62.147221,82.222321 
	C61.350769,81.845200 60.554321,81.468086 59.174927,81.442596 
	C55.490162,83.158699 53.710884,85.820297 54.696903,90.719131 
	C54.673058,92.374802 54.733307,94.036850 54.608231,95.684837 
	C54.329922,99.351730 52.343590,101.825142 48.639297,101.558723 
	C45.133671,101.306602 42.888229,98.872643 43.050602,95.174950 
	C43.141148,93.112968 44.020458,91.085617 44.543537,89.042534 
	C40.003132,89.997734 37.647003,93.598495 38.401985,98.428383 
	C39.171806,103.353188 42.468159,106.571716 47.246906,107.064461 
	C53.492897,107.708511 57.167492,105.294762 59.919292,98.307442 
	C60.013744,97.864243 60.108196,97.421051 60.708778,96.336189 
	C61.434242,92.328796 62.159706,88.321396 63.106384,85.185364 
	C63.106384,89.594749 63.106384,94.004128 63.106384,98.883568 
	C70.094620,98.883568 76.359703,98.883568 82.419792,99.673447 
	C81.299202,100.605743 80.178612,101.538040 78.879517,102.618851 
	C77.665352,101.631226 76.569550,100.739883 75.074303,99.523628 
	C73.793999,100.728264 72.639320,101.814705 71.143990,103.221664 
	C72.787262,104.900955 73.916534,106.054985 75.118797,107.283600 
	C76.595848,105.974297 77.675926,105.016876 78.861908,103.965591 
	C80.219849,105.047508 81.420662,106.004242 82.612900,106.954147 
	C84.009392,105.711319 85.109848,104.731964 86.226929,103.737801 
	C84.828964,101.904182 83.676430,100.392494 83.306931,98.824677 
	C84.541687,98.560471 85.776436,98.296257 87.629951,98.007721 
	C88.211548,97.466652 88.793152,96.925583 89.415543,96.271179 
	C89.415543,96.271179 89.337372,96.362755 89.813103,96.094269 
M146.001480,80.115067 
	C145.941071,78.092751 145.880661,76.070442 145.948502,73.511185 
	C145.905396,73.332283 145.862305,73.153389 145.961441,72.059288 
	C145.961441,68.060257 145.961441,64.061218 145.961441,60.062183 
	C145.460220,59.898834 144.959000,59.735481 144.457779,59.572132 
	C143.118759,61.409576 140.802032,63.159927 140.629105,65.101250 
	C140.162064,70.344048 140.607498,75.668121 140.401749,81.856194 
	C140.401749,87.428093 140.401749,93.000000 140.401749,98.771942 
	C145.031998,98.771942 148.875290,99.032478 152.668045,98.705971 
	C157.404572,98.298218 161.211945,96.061798 162.942780,91.366219 
	C164.629211,86.791054 163.194290,82.892319 159.808914,79.592506 
	C159.244217,79.042091 158.644623,78.527489 157.835617,77.791016 
	C161.516403,74.120247 166.060669,70.945717 163.350311,64.694572 
	C157.538513,70.159935 151.784286,75.571144 146.001480,80.115067 
M156.971024,119.064751 
	C158.664871,120.076935 160.358734,121.089127 162.417938,122.319633 
	C162.417938,113.711723 162.417938,106.000122 162.417938,98.147972 
	C158.247437,98.385117 156.720169,100.308617 156.920746,104.199997 
	C157.159729,108.837112 156.967255,113.496468 156.971024,119.064751 
M82.883743,73.410110 
	C79.005356,74.370934 75.126961,75.331749 71.248573,76.292572 
	C71.446571,77.005424 71.644569,77.718277 71.842575,78.431122 
	C77.445778,77.238533 83.048988,76.045937 88.652199,74.853340 
	C88.540596,74.207130 88.428993,73.560921 88.317390,72.914719 
	C86.776894,73.018623 85.236389,73.122536 82.883743,73.410110 
M115.335777,91.322487 
	C114.064842,92.418022 112.793907,93.513557 111.237518,94.855156 
	C112.882965,96.323975 114.029419,97.347359 115.341232,98.518356 
	C116.688400,97.056007 117.746078,95.907898 119.268509,94.255310 
	C117.987083,93.257721 116.956528,92.455421 115.335777,91.322487 
M47.544975,79.064186 
	C43.864586,82.311203 47.966286,83.107460 49.321899,85.196846 
	C50.696823,83.863892 51.842308,82.753372 53.812588,80.843239 
	C51.464668,79.909782 49.765995,79.234451 47.544975,79.064186 
M110.807777,106.030418 
	C109.602234,105.643639 108.396690,105.256859 107.191139,104.870087 
	C106.967194,106.874039 106.743240,108.877983 106.519295,110.881935 
	C107.189667,111.093407 107.860046,111.304886 108.530426,111.516357 
	C109.344643,109.929825 110.158859,108.343285 110.807777,106.030418 
M99.118393,73.688499 
	C97.651115,74.630104 96.183846,75.571716 94.336868,76.757004 
	C96.165215,78.411003 97.331047,79.465668 98.706322,80.709808 
	C100.033127,79.281197 101.116325,78.114883 102.278717,76.863304 
	C101.252045,75.765053 100.467476,74.925781 99.118393,73.688499 
M117.464981,71.860298 
	C119.074417,69.862541 119.918915,67.758850 117.130219,66.226021 
	C116.569458,65.917793 114.288918,67.162537 114.280296,67.714355 
	C114.251854,69.536713 112.684753,72.695419 117.464981,71.860298 
M46.450394,88.489449 
	C46.450394,88.489449 46.496143,88.505287 46.450394,88.489449 
z"/>
<path fill="#3F4092" opacity="1.000000" stroke="none" 
	d="
M87.011185,98.032051 
	C85.776436,98.296257 84.541687,98.560471 82.940201,98.871399 
	C82.573463,98.918121 82.624794,98.883568 82.624794,98.883568 
	C76.359703,98.883568 70.094620,98.883568 63.106384,98.883568 
	C63.106384,94.004128 63.106384,89.594749 63.030010,84.554825 
	C62.936989,83.525200 62.920341,83.126129 62.903690,82.727051 
	C62.903690,76.589409 62.903690,70.451775 62.903690,63.914284 
	C67.158783,64.628769 69.102859,66.339554 68.977318,70.486938 
	C68.756668,77.776184 68.915672,85.076927 68.915672,93.015671 
	C73.919991,93.015671 78.734795,93.456284 83.389450,92.785545 
	C85.104469,92.538406 87.715530,89.656166 87.698273,87.998947 
	C87.656380,83.975578 89.765007,82.473930 93.620758,80.703064 
	C93.620758,83.477173 93.540909,85.716858 93.639374,87.948669 
	C93.788979,91.339500 95.561440,93.071251 99.044342,93.045349 
	C102.746178,93.017822 103.482208,90.622574 103.269501,87.688004 
	C102.983940,83.748154 103.329819,80.292168 107.992241,79.157997 
	C111.187431,84.551819 117.957367,83.123878 121.899338,76.138466 
	C127.896156,77.353188 127.011520,81.975822 127.002991,86.259697 
	C126.997391,89.066933 126.098351,92.551025 131.703857,92.999695 
	C131.703857,84.799416 131.703857,76.773994 131.886597,68.836411 
	C132.132736,76.555367 132.196136,84.186501 132.195145,92.200966 
	C131.277512,93.867081 130.424271,95.149857 129.176651,97.025574 
	C131.510651,97.025574 133.243851,97.025574 135.123840,97.249382 
	C135.767853,97.643745 136.265060,97.814301 136.762283,97.984856 
	C126.955322,100.776253 121.624985,96.998466 120.684578,86.814110 
	C117.002403,87.263733 113.311882,87.714371 109.230347,88.212761 
	C108.987480,92.393776 108.204559,96.891106 102.866112,98.237877 
	C98.377457,99.370262 93.962257,99.614235 90.180870,95.286026 
	C89.512405,95.668518 89.424889,96.015640 89.337372,96.362755 
	C89.337372,96.362755 89.415543,96.271179 89.045639,96.241348 
	C88.120895,96.818359 87.566040,97.425201 87.011185,98.032051 
z"/>
<path fill="#35378D" opacity="1.000000" stroke="none" 
	d="
M127.931999,113.662956 
	C128.118286,113.806145 128.304565,113.949333 128.783325,114.599976 
	C129.478027,115.326019 129.880249,115.544617 130.282486,115.763214 
	C130.282486,115.763214 130.142044,115.878494 130.231140,116.074661 
	C130.627090,116.455612 130.933975,116.640404 131.240845,116.825188 
	C131.240845,116.825188 131.122101,116.881645 131.190674,117.088333 
	C131.520004,117.524918 131.780762,117.754799 132.041519,117.984688 
	C132.626923,119.420181 133.212341,120.855675 133.528610,122.648697 
	C133.043274,123.165970 132.827087,123.325722 132.610901,123.485474 
	C132.959976,123.668480 133.309036,123.851501 133.658112,124.034515 
	C133.633316,124.577637 133.608521,125.120766 133.097076,126.030045 
	C132.403320,127.253426 132.196228,128.110657 131.989136,128.967896 
	C131.088165,130.007660 130.187195,131.047424 128.591568,132.112701 
	C127.337555,132.573608 126.778168,133.008972 126.218781,133.444321 
	C126.218781,133.444321 126.116409,133.351608 125.695496,133.223755 
	C118.194931,133.369705 111.115280,133.643509 104.035637,133.917313 
	C101.300735,140.387802 96.914635,143.814743 89.806709,141.793503 
	C92.319763,139.835922 95.020576,137.732071 98.585777,134.954895 
	C88.028023,132.978363 84.507378,129.164856 85.140190,121.884819 
	C85.611382,116.464043 89.376862,112.783279 94.500969,112.734657 
	C99.714706,112.685181 102.287582,115.335930 103.057076,121.311745 
	C103.347420,123.566536 103.955399,125.780434 104.492500,128.369186 
	C106.714844,129.372086 108.237457,129.051132 108.074242,125.779701 
	C108.007927,124.450424 108.246742,123.084579 108.030800,121.787987 
	C107.295525,117.372955 109.257431,114.875427 113.589142,114.326874 
	C113.686813,116.562202 113.594910,118.258865 113.228348,120.037964 
	C113.127213,121.095901 113.300735,122.071396 113.562515,123.452202 
	C113.790642,125.508247 113.930504,127.158966 114.275566,129.116913 
	C116.320702,129.274506 118.160629,129.124878 120.369469,128.903244 
	C121.989075,128.815536 123.239784,128.799805 124.794426,128.775162 
	C125.398552,128.509766 125.698730,128.253265 125.999451,127.998390 
	C126.000000,128.000000 125.996529,127.998100 126.324669,127.962692 
	C127.079056,127.254883 127.505295,126.582489 127.965118,125.944374 
	C127.998703,125.978653 127.909760,125.942589 128.256256,125.896545 
	C131.255798,123.866623 129.913162,122.401611 127.988525,121.009209 
	C128.002365,121.004440 127.979408,121.026001 127.958443,120.668976 
	C126.874496,119.585518 125.811508,118.859077 124.385101,118.128357 
	C122.007050,117.472870 119.992416,116.821648 116.840546,115.802811 
	C118.523331,114.876991 119.479675,113.967361 120.522606,113.853935 
	C122.970375,113.587738 125.459572,113.702431 127.931999,113.662956 
M98.687729,124.595451 
	C98.583504,123.452477 98.900948,121.925163 98.284607,121.248955 
	C97.111137,119.961456 95.404266,119.160118 93.918877,118.156914 
	C92.875183,120.123795 90.833794,122.222710 91.071655,124.019981 
	C91.304131,125.776543 93.593742,127.838516 95.465561,128.657761 
	C97.939949,129.740723 98.933754,127.848831 98.687729,124.595451 
z"/>
<path fill="#3F4093" opacity="1.000000" stroke="none" 
	d="
M145.819214,72.974487 
	C145.862305,73.153389 145.905396,73.332283 145.638535,74.059731 
	C145.562393,76.732971 145.796219,78.857666 146.030060,80.982361 
	C151.784286,75.571144 157.538513,70.159935 163.350311,64.694572 
	C166.060669,70.945717 161.516403,74.120247 157.835617,77.791016 
	C158.644623,78.527489 159.244217,79.042091 159.808914,79.592506 
	C163.194290,82.892319 164.629211,86.791054 162.942780,91.366219 
	C161.211945,96.061798 157.404572,98.298218 152.668045,98.705971 
	C148.875290,99.032478 145.031998,98.771942 140.401749,98.771942 
	C140.401749,93.000000 140.401749,87.428093 140.872086,81.239899 
	C141.564163,76.240768 141.689484,71.849709 142.062332,67.479759 
	C142.185303,66.038429 142.947601,64.651649 143.765350,62.195240 
	C144.638062,66.775482 145.228638,69.874985 145.819214,72.974487 
M153.669022,82.727020 
	C150.319931,85.582016 145.557465,87.521011 146.185928,93.432480 
	C150.672745,92.456642 156.173218,94.900208 157.617233,89.082993 
	C158.040588,87.377472 155.575363,84.954903 153.669022,82.727020 
z"/>
<path fill="#35368F" opacity="1.000000" stroke="none" 
	d="
M43.060486,126.148994 
	C43.060490,126.148994 43.024563,126.591614 42.718079,127.060699 
	C42.018867,130.016968 40.913960,132.723511 44.408707,134.013199 
	C44.557800,134.124435 44.706894,134.235672 45.054707,134.860977 
	C45.562149,135.548553 45.870872,135.722076 46.179596,135.895615 
	C46.179596,135.895615 46.074669,135.916626 46.209503,136.219299 
	C50.145294,139.251511 53.214596,138.203186 55.806423,134.689468 
	C55.806423,134.689468 55.840023,134.857544 56.069153,134.752350 
	C56.553780,133.859100 56.809280,133.071014 57.064774,132.282944 
	C57.038750,128.460342 57.188377,124.626114 56.936455,120.818459 
	C56.692883,117.137009 57.241985,114.155914 61.821304,113.139603 
	C62.228798,113.851379 62.803577,114.855370 63.356316,115.820854 
	C63.881680,115.686775 64.277985,115.703857 64.488068,115.514420 
	C68.056183,112.296921 73.145050,111.703835 77.216225,114.062431 
	C81.422775,116.499435 83.453705,121.306404 82.256470,125.992027 
	C81.006630,130.883469 77.362671,133.876495 72.219238,134.074661 
	C69.397469,134.183395 66.567940,134.091156 62.957230,134.096008 
	C61.850578,134.811752 61.528599,135.521011 61.206619,136.230270 
	C61.206623,136.230270 61.160912,136.127060 60.946156,136.231506 
	C60.729454,136.676407 60.727509,137.016891 60.725563,137.357361 
	C60.725563,137.357361 60.661282,137.587845 60.223473,137.480194 
	C59.069576,138.407669 58.353493,139.442795 57.637405,140.477905 
	C57.637405,140.477905 57.500587,140.539795 57.023972,140.417633 
	C52.012436,140.203186 47.477516,140.110901 42.942596,140.018616 
	C42.595928,140.040070 42.314423,139.914932 41.921440,139.156555 
	C41.438347,138.475494 41.131893,138.281097 40.825443,138.086700 
	C40.825443,138.086700 40.921745,138.073700 40.909470,137.780807 
	C40.463081,137.079941 40.028965,136.671967 39.594845,136.263992 
	C39.594845,136.263992 39.702778,136.109009 39.787655,135.748932 
	C39.430374,133.201874 38.988216,131.014923 38.546059,128.827957 
	C38.546059,128.827957 38.595715,128.352722 38.990189,128.020111 
	C39.382282,127.339905 39.379902,126.992294 39.377525,126.644684 
	C39.377525,126.644684 39.462303,126.591965 39.815212,126.551170 
	C40.392498,125.859673 40.616875,125.208977 40.841251,124.558273 
	C40.841251,124.558273 40.808971,124.243614 41.247269,124.173920 
	C42.143871,124.785820 42.602177,125.467407 43.060486,126.148994 
M62.680412,118.315674 
	C62.566151,119.787254 62.365902,121.258034 62.352051,122.730560 
	C62.279964,130.394180 64.047554,131.590927 71.456566,128.975586 
	C72.385635,128.647644 73.677376,128.649582 74.199554,128.008606 
	C75.362175,126.581551 77.029213,124.737473 76.851242,123.260956 
	C76.640419,121.511955 74.985802,118.974388 73.459641,118.544617 
	C70.165199,117.616882 66.553040,117.817375 62.680412,118.315674 
z"/>
<path fill="#37388F" opacity="1.000000" stroke="none" 
	d="
M149.113998,117.028503 
	C149.067337,116.567284 149.020660,116.106071 149.313202,115.011490 
	C149.987610,111.952110 150.322784,109.526100 150.657974,107.100082 
	C151.353195,107.108353 152.048431,107.116615 152.743652,107.124878 
	C152.743652,109.192375 152.482895,111.301277 152.803116,113.317924 
	C153.317825,116.559357 154.216461,119.739815 155.279114,122.965141 
	C156.394775,122.737701 157.184189,122.491158 157.973618,122.244614 
	C158.526978,122.336136 159.080338,122.427650 159.843781,123.047623 
	C161.072205,124.721817 162.090530,125.867561 163.108856,127.013306 
	C163.221054,127.535393 163.333267,128.057480 163.242325,129.049454 
	C163.039169,129.519348 162.971802,129.929245 162.971802,129.929245 
	C162.971802,129.929245 163.010483,129.965683 162.639648,130.040710 
	C162.008408,130.879593 161.748001,131.643433 161.487595,132.407288 
	C161.487595,132.407288 161.404251,132.391220 160.957947,132.289673 
	C159.394135,132.275787 158.196945,132.134903 157.173309,132.491837 
	C153.314560,133.837326 150.340958,133.335800 148.886765,129.038895 
	C147.218704,128.356400 145.550644,127.673897 145.046768,127.467735 
	C143.107224,131.833008 142.031906,136.827621 139.051559,140.072525 
	C137.002106,142.303925 132.309692,142.107864 128.331253,142.195160 
	C137.841599,137.088593 139.658051,129.656845 137.293228,120.097466 
	C136.941864,118.677124 139.940857,116.427963 140.835144,115.276497 
	C144.014740,117.784607 146.402039,119.667747 149.193359,121.043098 
	C149.436249,119.366371 149.275116,118.197441 149.113998,117.028503 
z"/>
<path fill="#383A8D" opacity="1.000000" stroke="none" 
	d="
M59.635986,98.926399 
	C57.167492,105.294762 53.492897,107.708511 47.246906,107.064461 
	C42.468159,106.571716 39.171806,103.353188 38.401985,98.428383 
	C37.647003,93.598495 40.003132,89.997734 44.543926,89.042603 
	C44.020458,91.085617 43.141148,93.112968 43.050602,95.174950 
	C42.888229,98.872643 45.133671,101.306602 48.639297,101.558723 
	C52.343590,101.825142 54.329922,99.351730 54.608231,95.684837 
	C54.733307,94.036850 54.673058,92.374802 55.111732,90.109253 
	C56.009502,87.998215 56.492443,86.497063 56.975388,84.995911 
	C57.478680,85.060577 57.981972,85.125252 58.485260,85.189919 
	C58.868835,89.768745 59.252411,94.347572 59.635986,98.926399 
z"/>
<path fill="#F3F5FC" opacity="1.000000" stroke="none" 
	d="
M114.070366,128.809692 
	C113.930504,127.158966 113.790642,125.508247 113.681335,123.075417 
	C113.642265,121.514046 113.572632,120.734787 113.503006,119.955521 
	C113.594910,118.258865 113.686813,116.562202 113.837769,114.439957 
	C118.352776,113.013809 122.695137,110.190521 127.665665,113.417892 
	C125.459572,113.702431 122.970375,113.587738 120.522606,113.853935 
	C119.479675,113.967361 118.523331,114.876991 116.840546,115.802811 
	C119.992416,116.821648 122.007050,117.472870 124.572632,118.379585 
	C126.075516,119.432053 127.027458,120.229027 127.979408,121.026001 
	C127.979408,121.026001 128.002365,121.004440 128.000443,121.421249 
	C127.968933,123.206238 127.939346,124.574417 127.909760,125.942589 
	C127.909760,125.942589 127.998703,125.978653 127.715363,126.089279 
	C126.953529,126.799309 126.475029,127.398705 125.996536,127.998100 
	C125.996529,127.998100 126.000000,128.000000 125.702545,128.034302 
	C125.100227,128.307083 124.795357,128.545578 124.490486,128.784073 
	C123.239784,128.799805 121.989075,128.815536 119.954170,128.809814 
	C117.470100,128.795471 115.770233,128.802582 114.070366,128.809692 
z"/>
<path fill="#474795" opacity="1.000000" stroke="none" 
	d="
M156.966354,118.605469 
	C156.967255,113.496468 157.159729,108.837112 156.920746,104.199997 
	C156.720169,100.308617 158.247437,98.385117 162.417938,98.147972 
	C162.417938,106.000122 162.417938,113.711723 162.417938,122.319633 
	C160.358734,121.089127 158.664871,120.076935 156.966354,118.605469 
z"/>
<path fill="#414086" opacity="1.000000" stroke="none" 
	d="
M82.522293,99.278503 
	C82.624794,98.883568 82.573463,98.918121 82.548676,98.899460 
	C83.676430,100.392494 84.828964,101.904182 86.226929,103.737801 
	C85.109848,104.731964 84.009392,105.711319 82.612900,106.954147 
	C81.420662,106.004242 80.219849,105.047508 78.861908,103.965591 
	C77.675926,105.016876 76.595848,105.974297 75.118797,107.283600 
	C73.916534,106.054985 72.787262,104.900955 71.143990,103.221664 
	C72.639320,101.814705 73.793999,100.728264 75.074303,99.523628 
	C76.569550,100.739883 77.665352,101.631226 78.879517,102.618851 
	C80.178612,101.538040 81.299202,100.605743 82.522293,99.278503 
z"/>
<path fill="#33357C" opacity="1.000000" stroke="none" 
	d="
M136.895355,97.533661 
	C136.265060,97.814301 135.767853,97.643745 135.424408,96.953400 
	C135.578171,87.101295 135.578171,77.768990 135.578171,68.436684 
	C135.011765,68.403847 134.445374,68.371002 133.878967,68.338165 
	C133.587662,70.122345 133.132233,71.897621 133.034973,73.692314 
	C132.707748,79.730362 132.508041,85.775314 132.259537,91.817627 
	C132.196136,84.186501 132.132736,76.555367 132.027649,68.457245 
	C133.361771,66.737320 134.737564,65.484390 137.028442,63.398106 
	C137.028442,75.435913 137.028442,86.259186 136.895355,97.533661 
z"/>
<path fill="#393A80" opacity="1.000000" stroke="none" 
	d="
M145.890320,72.516891 
	C145.228638,69.874985 144.638062,66.775482 143.765350,62.195240 
	C142.947601,64.651649 142.185303,66.038429 142.062332,67.479759 
	C141.689484,71.849709 141.564163,76.240768 141.016663,80.791779 
	C140.607498,75.668121 140.162064,70.344048 140.629105,65.101250 
	C140.802032,63.159927 143.118759,61.409576 144.457779,59.572132 
	C144.959000,59.735481 145.460220,59.898834 145.961441,60.062183 
	C145.961441,64.061218 145.961441,68.060257 145.890320,72.516891 
z"/>
<path fill="#87BA8B" opacity="1.000000" stroke="none" 
	d="
M83.289818,73.318283 
	C85.236389,73.122536 86.776894,73.018623 88.317390,72.914719 
	C88.428993,73.560921 88.540596,74.207130 88.652199,74.853340 
	C83.048988,76.045937 77.445778,77.238533 71.842575,78.431122 
	C71.644569,77.718277 71.446571,77.005424 71.248573,76.292572 
	C75.126961,75.331749 79.005356,74.370934 83.289818,73.318283 
z"/>
<path fill="#35377F" opacity="1.000000" stroke="none" 
	d="
M154.952866,122.946037 
	C154.216461,119.739815 153.317825,116.559357 152.803116,113.317924 
	C152.482895,111.301277 152.743652,109.192375 152.743652,107.124878 
	C152.048431,107.116615 151.353195,107.108353 150.657974,107.100082 
	C150.322784,109.526100 149.987610,111.952110 149.387726,114.669678 
	C149.585159,110.711838 146.524872,105.192848 154.259033,102.745987 
	C154.259033,109.371597 154.259033,115.526810 154.619064,122.123734 
	C154.979095,122.565445 154.952866,122.946037 154.952866,122.946037 
z"/>
<path fill="#404182" opacity="1.000000" stroke="none" 
	d="
M115.630875,91.487808 
	C116.956528,92.455421 117.987083,93.257721 119.268509,94.255310 
	C117.746078,95.907898 116.688400,97.056007 115.341232,98.518356 
	C114.029419,97.347359 112.882965,96.323975 111.237518,94.855156 
	C112.793907,93.513557 114.064842,92.418022 115.630875,91.487808 
z"/>
<path fill="#404182" opacity="1.000000" stroke="none" 
	d="
M47.806149,78.811646 
	C49.765995,79.234451 51.464668,79.909782 53.812588,80.843239 
	C51.842308,82.753372 50.696823,83.863892 49.321899,85.196846 
	C47.966286,83.107460 43.864586,82.311203 47.806149,78.811646 
z"/>
<path fill="#3A3B7C" opacity="1.000000" stroke="none" 
	d="
M59.777641,98.616920 
	C59.252411,94.347572 58.868835,89.768745 58.485260,85.189919 
	C57.981972,85.125252 57.478680,85.060577 56.975388,84.995911 
	C56.492443,86.497063 56.009502,87.998215 55.233829,89.737274 
	C53.710884,85.820297 55.490162,83.158699 59.555199,81.720100 
	C60.024529,86.991020 60.113590,91.984436 60.202652,96.977852 
	C60.108196,97.421051 60.013744,97.864243 59.777641,98.616920 
z"/>
<path fill="#87BA8B" opacity="1.000000" stroke="none" 
	d="
M110.890427,106.393585 
	C110.158859,108.343285 109.344643,109.929825 108.530426,111.516357 
	C107.860046,111.304886 107.189667,111.093407 106.519295,110.881935 
	C106.743240,108.877983 106.967194,106.874039 107.191139,104.870087 
	C108.396690,105.256859 109.602234,105.643639 110.890427,106.393585 
z"/>
<path fill="#484888" opacity="1.000000" stroke="none" 
	d="
M99.400650,73.887505 
	C100.467476,74.925781 101.252045,75.765053 102.278717,76.863304 
	C101.116325,78.114883 100.033127,79.281197 98.706322,80.709808 
	C97.331047,79.465668 96.165215,78.411003 94.336868,76.757004 
	C96.183846,75.571716 97.651115,74.630104 99.400650,73.887505 
z"/>
<path fill="#81BD85" opacity="1.000000" stroke="none" 
	d="
M117.156357,72.063377 
	C112.684753,72.695419 114.251854,69.536713 114.280296,67.714355 
	C114.288918,67.162537 116.569458,65.917793 117.130219,66.226021 
	C119.918915,67.758850 119.074417,69.862541 117.156357,72.063377 
z"/>
<path fill="#3D3E88" opacity="1.000000" stroke="none" 
	d="
M43.151028,140.317123 
	C47.477516,140.110901 52.012436,140.203186 56.957581,140.452698 
	C52.699551,143.551666 48.029896,143.041504 43.151028,140.317123 
z"/>
<path fill="#3A3B7C" opacity="1.000000" stroke="none" 
	d="
M104.494415,134.002014 
	C111.115280,133.643509 118.194931,133.369705 125.757111,133.192596 
	C119.144157,133.555084 112.048668,133.820908 104.494415,134.002014 
z"/>
<path fill="#404182" opacity="1.000000" stroke="none" 
	d="
M148.901596,129.487457 
	C150.340958,133.335800 153.314560,133.837326 157.173309,132.491837 
	C158.196945,132.134903 159.394135,132.275787 160.947449,132.330780 
	C157.554459,133.258209 153.725677,134.042969 149.312546,134.947479 
	C149.131607,132.658447 149.024017,131.297226 148.901596,129.487457 
z"/>
<path fill="#F3F3FC" opacity="1.000000" stroke="none" 
	d="
M60.455715,96.657021 
	C60.113590,91.984436 60.024529,86.991020 59.846672,81.544281 
	C60.554321,81.468086 61.350769,81.845200 62.525455,82.474686 
	C62.920341,83.126129 62.936989,83.525200 62.919403,84.119141 
	C62.159706,88.321396 61.434242,92.328796 60.455715,96.657021 
z"/>
<path fill="#3D3E88" opacity="1.000000" stroke="none" 
	d="
M55.471741,134.831116 
	C53.214596,138.203186 50.145294,139.251511 46.216343,136.166245 
	C49.104584,135.531250 52.120819,135.251999 55.471741,134.831116 
z"/>
<path fill="#3D3E88" opacity="1.000000" stroke="none" 
	d="
M44.306793,133.664185 
	C40.913960,132.723511 42.018867,130.016968 42.673767,127.278275 
	C43.358921,129.122894 43.781898,131.219025 44.306793,133.664185 
z"/>
<path fill="#3D3E88" opacity="1.000000" stroke="none" 
	d="
M38.358513,129.144104 
	C38.988216,131.014923 39.430374,133.201874 39.768204,135.841339 
	C39.166237,134.015961 38.668598,131.738098 38.358513,129.144104 
z"/>
<path fill="#3D3E88" opacity="1.000000" stroke="none" 
	d="
M43.368996,126.032661 
	C42.602177,125.467407 42.143871,124.785820 41.353577,124.056831 
	C42.406509,123.131737 43.791420,122.254036 45.176334,121.376343 
	C45.466843,121.654808 45.757351,121.933266 46.047859,122.211723 
	C45.257744,123.446594 44.467628,124.681458 43.368996,126.032661 
z"/>
<path fill="#404182" opacity="1.000000" stroke="none" 
	d="
M163.151978,126.714203 
	C162.090530,125.867561 161.072205,124.721817 160.035446,123.265549 
	C161.076385,124.108391 162.135757,125.261742 163.151978,126.714203 
z"/>
<path fill="#3D3E88" opacity="1.000000" stroke="none" 
	d="
M57.903652,140.362457 
	C58.353493,139.442795 59.069576,138.407669 60.149513,137.574234 
	C59.732208,138.599609 58.951050,139.423325 57.903652,140.362457 
z"/>
<path fill="#393A80" opacity="1.000000" stroke="none" 
	d="
M146.015778,80.548714 
	C145.796219,78.857666 145.562393,76.732971 145.574402,74.328201 
	C145.880661,76.070442 145.941071,78.092751 146.015778,80.548714 
z"/>
<path fill="#35377F" opacity="1.000000" stroke="none" 
	d="
M149.040833,117.417969 
	C149.275116,118.197441 149.436249,119.366371 149.357407,120.750519 
	C149.067505,119.912964 149.017593,118.860199 149.040833,117.417969 
z"/>
<path fill="#414086" opacity="1.000000" stroke="none" 
	d="
M87.320572,98.019882 
	C87.566040,97.425201 88.120895,96.818359 89.025246,96.298019 
	C88.793152,96.925583 88.211548,97.466652 87.320572,98.019882 
z"/>
<path fill="#404182" opacity="1.000000" stroke="none" 
	d="
M161.744934,132.251068 
	C161.748001,131.643433 162.008408,130.879593 162.614532,130.049362 
	C162.640930,130.686951 162.321609,131.390900 161.744934,132.251068 
z"/>
<path fill="#3D3E88" opacity="1.000000" stroke="none" 
	d="
M61.446259,136.073868 
	C61.528599,135.521011 61.850578,134.811752 62.485519,134.035629 
	C62.427624,134.618332 62.056759,135.267899 61.446259,136.073868 
z"/>
<path fill="#484A91" opacity="1.000000" stroke="none" 
	d="
M132.241852,128.757019 
	C132.196228,128.110657 132.403320,127.253426 132.904205,126.229553 
	C132.963531,126.890663 132.729050,127.718414 132.241852,128.757019 
z"/>
<path fill="#404182" opacity="1.000000" stroke="none" 
	d="
M155.279114,122.965141 
	C154.952866,122.946037 154.979095,122.565445 154.984406,122.374771 
	C155.740570,122.141182 156.491440,122.098259 157.607956,122.149971 
	C157.184189,122.491158 156.394775,122.737701 155.279114,122.965141 
z"/>
<path fill="#3D3E88" opacity="1.000000" stroke="none" 
	d="
M56.877819,132.505768 
	C56.809280,133.071014 56.553780,133.859100 55.985031,134.735977 
	C56.011478,134.126053 56.351170,133.427322 56.877819,132.505768 
z"/>
<path fill="#484A91" opacity="1.000000" stroke="none" 
	d="
M133.750397,123.770126 
	C133.309036,123.851501 132.959976,123.668480 132.610901,123.485474 
	C132.827087,123.325722 133.043274,123.165970 133.475189,122.986420 
	C133.741516,123.146332 133.792084,123.326035 133.750397,123.770126 
z"/>
<path fill="#3D3E88" opacity="1.000000" stroke="none" 
	d="
M39.663425,136.557281 
	C40.028965,136.671967 40.463081,137.079941 40.887093,137.823944 
	C40.495327,137.723495 40.113667,137.287033 39.663425,136.557281 
z"/>
<path fill="#3A3B7C" opacity="1.000000" stroke="none" 
	d="
M126.572525,133.385010 
	C126.778168,133.008972 127.337555,132.573608 128.296432,132.174347 
	C128.106049,132.582199 127.516151,132.953949 126.572525,133.385010 
z"/>
<path fill="#3D3E88" opacity="1.000000" stroke="none" 
	d="
M40.577129,124.720901 
	C40.616875,125.208977 40.392498,125.859673 39.797626,126.504456 
	C39.722424,125.960205 40.017715,125.421860 40.577129,124.720901 
z"/>
<path fill="#484A91" opacity="1.000000" stroke="none" 
	d="
M130.211365,115.539612 
	C129.880249,115.544617 129.478027,115.326019 129.010010,114.869843 
	C129.342896,114.860168 129.741562,115.088089 130.211365,115.539612 
z"/>
<path fill="#404182" opacity="1.000000" stroke="none" 
	d="
M163.083862,129.852570 
	C162.971802,129.929245 163.039169,129.519348 163.070389,129.420609 
	C163.101608,129.321869 163.281616,129.521103 163.281616,129.521103 
	C163.281616,129.521103 163.195923,129.775879 163.083862,129.852570 
z"/>
<path fill="#3D3E88" opacity="1.000000" stroke="none" 
	d="
M39.202335,126.828339 
	C39.379902,126.992294 39.382282,127.339905 39.152836,127.845116 
	C38.956390,127.672478 38.991768,127.342239 39.202335,126.828339 
z"/>
<path fill="#3D3E88" opacity="1.000000" stroke="none" 
	d="
M46.072773,135.646851 
	C45.870872,135.722076 45.562149,135.548553 45.147415,135.124146 
	C45.349590,135.048218 45.657768,135.223145 46.072773,135.646851 
z"/>
<path fill="#484A91" opacity="1.000000" stroke="none" 
	d="
M132.014206,117.713242 
	C131.780762,117.754799 131.520004,117.524918 131.221100,117.030060 
	C131.450912,116.990662 131.718903,117.216232 132.014206,117.713242 
z"/>
<path fill="#484A91" opacity="1.000000" stroke="none" 
	d="
M131.166489,116.565918 
	C130.933975,116.640404 130.627090,116.455612 130.273254,115.994171 
	C130.514908,115.913895 130.803528,116.110275 131.166489,116.565918 
z"/>
<path fill="#3D3E88" opacity="1.000000" stroke="none" 
	d="
M60.891495,137.195328 
	C60.727509,137.016891 60.729454,136.676407 61.001923,136.240189 
	C61.311195,136.467453 61.239525,136.763748 60.891495,137.195328 
z"/>
<path fill="#3D3E88" opacity="1.000000" stroke="none" 
	d="
M40.904045,138.358826 
	C41.131893,138.281097 41.438347,138.475494 41.838997,138.932465 
	C41.616348,139.007019 41.299496,138.818985 40.904045,138.358826 
z"/>
<path fill="#414086" opacity="1.000000" stroke="none" 
	d="
M89.575241,96.228516 
	C89.424889,96.015640 89.512405,95.668518 89.848816,95.195923 
	C90.002838,95.411720 89.907967,95.752998 89.575241,96.228516 
z"/>
<path fill="#383A8D" opacity="1.000000" stroke="none" 
	d="
M46.473267,88.497368 
	C46.496143,88.505287 46.450394,88.489449 46.473267,88.497368 
z"/>
<path fill="#2E3092" opacity="1.000000" stroke="none" 
	d="
M132.195145,92.200966 
	C132.508041,85.775314 132.707748,79.730362 133.034973,73.692314 
	C133.132233,71.897621 133.587662,70.122345 133.878967,68.338165 
	C134.445374,68.371002 135.011765,68.403847 135.578171,68.436684 
	C135.578171,77.768990 135.578171,87.101295 135.277618,96.729584 
	C133.243851,97.025574 131.510651,97.025574 129.176651,97.025574 
	C130.424271,95.149857 131.277512,93.867081 132.195145,92.200966 
z"/>
<path fill="#ECECF7" opacity="1.000000" stroke="none" 
	d="
M98.689484,125.006630 
	C98.933754,127.848831 97.939949,129.740723 95.465561,128.657761 
	C93.593742,127.838516 91.304131,125.776543 91.071655,124.019981 
	C90.833794,122.222710 92.875183,120.123795 93.918877,118.156914 
	C95.404266,119.160118 97.111137,119.961456 98.284607,121.248955 
	C98.900948,121.925163 98.583504,123.452477 98.689484,125.006630 
z"/>
<path fill="#484A91" opacity="1.000000" stroke="none" 
	d="
M128.256256,125.896545 
	C127.939346,124.574417 127.968933,123.206238 127.986603,121.426025 
	C129.913162,122.401611 131.255798,123.866623 128.256256,125.896545 
z"/>
<path fill="#484A91" opacity="1.000000" stroke="none" 
	d="
M113.228348,120.037964 
	C113.572632,120.734787 113.642265,121.514046 113.593071,122.670097 
	C113.300735,122.071396 113.127213,121.095901 113.228348,120.037964 
z"/>
<path fill="#484A91" opacity="1.000000" stroke="none" 
	d="
M114.275566,129.116913 
	C115.770233,128.802582 117.470100,128.795471 119.585266,128.881805 
	C118.160629,129.124878 116.320702,129.274506 114.275566,129.116913 
z"/>
<path fill="#484A91" opacity="1.000000" stroke="none" 
	d="
M127.958443,120.668983 
	C127.027458,120.229027 126.075516,119.432053 124.936050,118.383850 
	C125.811508,118.859077 126.874496,119.585518 127.958443,120.668983 
z"/>
<path fill="#484A91" opacity="1.000000" stroke="none" 
	d="
M126.324677,127.962692 
	C126.475029,127.398705 126.953529,126.799309 127.681778,126.055008 
	C127.505295,126.582489 127.079056,127.254883 126.324677,127.962692 
z"/>
<path fill="#484A91" opacity="1.000000" stroke="none" 
	d="
M124.794426,128.775162 
	C124.795357,128.545578 125.100227,128.307083 125.702003,128.032684 
	C125.698730,128.253265 125.398552,128.509766 124.794426,128.775162 
z"/>
<path fill="#F3F3FC" opacity="1.000000" stroke="none" 
	d="
M154.051529,82.793999 
	C155.575363,84.954903 158.040588,87.377472 157.617233,89.082993 
	C156.173218,94.900208 150.672745,92.456642 146.185928,93.432480 
	C145.557465,87.521011 150.319931,85.582016 154.051529,82.793999 
z"/>
<path fill="#EDEEF8" opacity="1.000000" stroke="none" 
	d="
M62.875641,117.935974 
	C66.553040,117.817375 70.165199,117.616882 73.459641,118.544617 
	C74.985802,118.974388 76.640419,121.511955 76.851242,123.260956 
	C77.029213,124.737473 75.362175,126.581551 74.199554,128.008606 
	C73.677376,128.649582 72.385635,128.647644 71.456566,128.975586 
	C64.047554,131.590927 62.279964,130.394180 62.352051,122.730560 
	C62.365902,121.258034 62.566151,119.787254 62.875641,117.935974 
z"/>
</svg>