<?xml version="1.0" standalone="no"?>
<!DOCTYPE svg PUBLIC "-//W3C//DTD SVG 20010904//EN"
 "http://www.w3.org/TR/2001/REC-SVG-20010904/DTD/svg10.dtd">
<svg version="1.0" xmlns="http://www.w3.org/2000/svg"
 width="512.000000pt" height="512.000000pt" viewBox="0 0 512.000000 512.000000"
 preserveAspectRatio="xMidYMid meet">

<g transform="translate(0.000000,512.000000) scale(0.100000,-0.100000)"
fill="#ffffff" stroke="none">
<path d="M0 2560 l0 -2560 2560 0 2560 0 0 2560 0 2560 -2560 0 -2560 0 0
-2560z m1345 1676 c180 -47 295 -197 295 -380 -1 -282 -272 -452 -586 -367
-74 20 -167 94 -210 167 -103 174 -53 409 110 521 70 48 155 72 256 72 47 1
108 -5 135 -13z m2310 -1052 c373 -71 610 -358 665 -804 6 -51 10 -369 10
-797 l0 -713 -380 0 -380 0 0 659 c0 722 -2 756 -58 876 -38 81 -82 129 -147
160 -152 75 -359 36 -470 -87 -65 -72 -104 -153 -115 -241 -5 -40 -10 -363
-10 -719 l0 -648 -378 0 -379 0 1 1140 1 1140 378 0 377 0 1 -157 0 -158 32
40 c67 85 184 193 247 228 174 96 378 124 605 81z m-2065 -1174 l0 -1140 -380
0 -380 0 0 1140 0 1140 380 0 380 0 0 -1140z"/>
</g>
</svg>
